# xmcd CD database file
#
# Track frame offsets:
#	150
#	16370
#	34862
#	51320
#	66912
#	82405
#	103032
#	121542
#	145227
#	167307
#	182945
#	205340
#	222282
#	245020
#	259272
#	273292
#	297595
#
# Disc length: 4149 seconds
#
# Revision: 0
# Processed by: cddbd v1.5.1PL0 Copyright (c) Steve Scherf et al.
# Submitted via: CDex 1.51
#
DISCID=09103311
DTITLE=Frl. Mayer's Hinterhausjazzer - Jubilee
DYEAR=2001
DGENRE=Jazz
TTITLE0=Toot, Toot, Tootsie Good Bye
TTITLE1=Canal Street Blues
TTITLE2=You Rascal You
TTITLE3=Jubilee Stomp
TTITLE4=Wabash Blues
TTITLE5=What A Wonderful World
TTITLE6=C'est Si Bon
TTITLE7=Tin Roof Blues
TTITLE8=Robin Hood
TTITLE9=Papa What You Are Trying To Do To Me
TTITLE10=We Shure Do Need Him Now
TTITLE11=Si Tu Vois Ma Mere
TTITLE12=Lover Come Back To Me
TTITLE13=Blueberryhill
TTITLE14=Simsalabim
TTITLE15=Come Friday
TTITLE16=Caledonia
EXTD=YEAR: 2001
EXTT0=
EXTT1=
EXTT2=
EXTT3=
EXTT4=
EXTT5=
EXTT6=
EXTT7=
EXTT8=
EXTT9=
EXTT10=
EXTT11=
EXTT12=
EXTT13=
EXTT14=
EXTT15=
EXTT16=
PLAYORDER=
